<svg xmlns="http://www.w3.org/2000/svg" viewBox="0 0 1920 1080"><defs><style>.cls-1{isolation:isolate;font-size:12px;}.cls-1,.cls-4{font-family:MicrosoftYaHei, Microsoft YaHei;}.cls-2{fill:#f2f2f2;}.cls-3{fill:#4d4d4d;}.cls-4{font-size:30px;fill:#fff;letter-spacing:0.1em;}.cls-5{fill:#39b54a;}.cls-6{fill:red;}</style></defs><title>未标题-1</title><g id="图层_2" data-name="图层 2"><text class="cls-1" transform="translate(63.18713 73.87506)">N</text><path d="M1664,84V81H1464v3H1060V81H860v3H456V81H256v3H48V996H256v3H456v-3H860v3h200v-3h404v3h200v-3h208V84Zm-198-1h196V97H1466V83Zm394,351h-38V337h-2.06787a103.9689,103.9689,0,0,0-103.35376,93H1714v4H1317V385h-49V96h196v3h200V96h196Zm0,10h-38v-8h38Zm0,190H1414v-4h-4v9h-1.99731q0,2.51514-.12452,5c-.033.66882-.077,1.33466-.123,2a99.96426,99.96426,0,0,1-99.68726,93V633.9917H1306V634H810v-4h-4v9h-1.99738q0,2.51514-.12445,5c-.03289.66882-.077,1.33466-.123,2a99.96429,99.96429,0,0,1-99.68738,93V633.9917H702V634H206v-4h-4v9h-1.99738q0,2.51514-.12445,5c-.03289.66882-.077,1.33466-.123,2a99.96429,99.96429,0,0,1-99.68738,93V633.9917H98V634H60V446H506v4h4v-9h1.99738q0-2.51514.12445-5c.03289-.66882.077-1.33466.123-2a99.96429,99.96429,0,0,1,99.68738-93V446.0083H614V446h496v4h4v-9h1.99731q0-2.51514.12452-5c.033-.66882.077-1.33466.123-2a99.96426,99.96426,0,0,1,99.68726-93V446.0083H1218V446h496v4h4v-9h1.99731q0-2.51514.12452-5c.033-.66882.077-1.33466.123-2a99.96426,99.96426,0,0,1,99.68726-93V446.0083H1822V446h38Zm0,10H1414v-8h446Zm0,340H1664v-3H1464v3H1317V935h-49V646h38v97h2.06787a103.9689,103.9689,0,0,0,103.35376-93H1414v-4h446Zm-604,0H1060v-3H860v3H713V935H664V646h38v97h2.06781a103.96891,103.96891,0,0,0,103.35376-93H810v-4h446Zm-604,0H456v-3H256v3H109V935H60V646H98v97h2.06781a103.96891,103.96891,0,0,0,103.35376-93H206v-4H652ZM60,636H98v8H60ZM258,99H456V96H652V434H614V337h-2.06781a103.96891,103.96891,0,0,0-103.35376,93H506v4H109V385H60V96H256v3ZM60,436H506v8H60Zm604-52V96H860v3h200V96h196V434h-38V337h-2.06787a103.9689,103.9689,0,0,0-103.35376,93H1110v4H713.617V384ZM1256,86h208v8H1266V436h448v8H1218v-8h40V94H1060V86ZM862,83h196V97H862V83ZM652,86H860v8H662V436h448v8H614v-8h40V94H456V86ZM258,83H454V97H258V83ZM60,994H50V86H256v8H58V986H256v8Zm394,3H258V983H454v14Zm210-3H456v-8H654V644H206v-8H702v8H662V986H860v8Zm394,3H862V983h196v14Zm210-3H1060v-8h198V644H810v-8h496v8h-40V986h198v8Zm394,3H1466V983h196v14ZM1870,94V994H1664v-8h198V94H1664V86h206Z"/><path d="M59.556,60.65149a.28963.28963,0,0,0,.13983-.1286L67.738,49.33917l8.73718,10.447c.16473.19715.37854.16913.51855-.06787a1.2777,1.2777,0,0,0,.08081-.941L67.42,25.80859c-.07348-.252-.21368-.36511-.36041-.38629-.012-.00555-.01929-.03-.03174-.03314-.02362-.0097-.04406.01813-.06714.01727-.01141.00257-.02282-.01214-.03314-.0061-.00683.0025-.00921.0152-.01556.01862-.15021.02484-.29035.15386-.34857.42089L59.03357,59.57123a1.26557,1.26557,0,0,0,.14032.92981A.29034.29034,0,0,0,59.556,60.65149ZM66.64435,29.6618l.59314,18.36744-6.80475,9.46545Z"/></g><g id="图层_4" data-name="图层 4"><path class="cls-2" d="M810,646v4h-2.57843a103.96891,103.96891,0,0,1-103.35376,93H702V646H664V935h49v49H860v-3h200v3h196V646Z"/><path class="cls-2" d="M206,646v4h-2.57843a103.96891,103.96891,0,0,1-103.35376,93H98V646H60V935h49v49H256v-3H456v3H652V646Z"/><path class="cls-3" d="M1414,650h-2.57837a103.9689,103.9689,0,0,1-103.35376,93H1306V646h-38V935h49v49h147v-3h200v3h196V646H1414Z"/><path class="cls-2" d="M1664,99H1464V96H1268V385h49v49h397v-4h2.57837a103.9689,103.9689,0,0,1,103.35376-93H1822v97h38V96H1664v3Z"/><path class="cls-2" d="M713.617,384v50H1110v-4h2.57837a103.9689,103.9689,0,0,1,103.35376-93H1218v97h38V96H1060v3H860V96H664V384Z"/><path class="cls-2" d="M109,434H506v-4h2.57843a103.96891,103.96891,0,0,1,103.35376-93H614v97h38V96H456v3H256V96H60V385h49Z"/></g><g id="图层_3" data-name="图层 3"><text class="cls-4" transform="translate(63.40723 419.03076)">01</text><text class="cls-4" transform="translate(63.40723 969.03076)">02</text><text class="cls-4" transform="translate(668.02429 418.03076)">03</text><text class="cls-4" transform="translate(667.40723 969.03076)">04</text><text class="cls-4" transform="translate(1271.40723 419.03076)">05</text><text class="cls-4" transform="translate(1271.40723 969.03076)">06</text></g><g id="图层_1" data-name="图层 1"><path class="cls-5" d="M372.59354,324.52327c-1.79077-5.19292-7.71937-5.93678-12.67387-8.02763-5.441-2.29279-11.47218-4.95578-16.9-7.18315q-2.323-.6315-4.64729-1.267c-1.84875-1.27264-3.6586-5.50141-4.64728-7.60415q-1.47893-.21038-2.95811-.421c.1524-3.25347,2.16568-3.42891,2.95811-5.914.69707-2.19367.07161-5.043,1.17725-7.0719.76715-1.40843,2.50093-1.41933,3.3672-2.62681a12.09523,12.09523,0,0,0,1.54868-4.35216c.44776-2.45361.83728-5.81338-.32782-8.24667-.67027-1.39976-1.0937-1.53283-1.28008-3.23167-.22623-2.05689.60733-8.76826.64128-10.21882a20.4147,20.4147,0,0,0-.91707-7.73746s-1.10712-3.32236-2.84086-4.32293l-3.45666-.59519-2.13672-1.97958c-8.60869-5.298-17.83908-1.58115-22.78148.42124-7.12394,2.31088-11.62726,9.28713-8.48256,24.18718.5372,2.54455-1.39378,3.68289-1.26794,5.07076.27579,3.03814.335,10.33875,3.2049,12.1377a7.84966,7.84966,0,0,0,2.28809.53721q.4226,4.43566.84446,8.87233c.71735,1.966,2.43552,2.18154,2.93506,4.957l-2.19937.53473c-.98868,2.10274-2.79977,6.33151-4.64852,7.60415q-2.323.63372-4.64605,1.267c-5.42881,2.22737-11.46024,4.89036-16.9012,7.18315-4.9533,2.09085-10.88314,2.83471-12.67515,8.02763,0,3.527-.33129,11.8572-.2406,16.47673h47.36165l3.47748-23.7481-2.89046-6.10032,6.67246-3.19921,5.62134,3.13379-3.0986,6.28195L327.55346,341h45.28192C372.92731,336.38047,372.59354,328.0503,372.59354,324.52327Z"/><path class="cls-5" d="M492.37082,324.52327c-1.79078-5.19292-7.71938-5.93678-12.67388-8.02763-5.441-2.29279-11.47218-4.95578-16.9-7.18315q-2.323-.6315-4.64728-1.267c-1.84875-1.27264-3.65861-5.50141-4.64728-7.60415q-1.47894-.21038-2.95811-.421c.15239-3.25347,2.16568-3.42891,2.95811-5.914.69707-2.19367.07161-5.043,1.17724-7.0719.76716-1.40843,2.50094-1.41933,3.36721-2.62681a12.09523,12.09523,0,0,0,1.54868-4.35216c.44775-2.45361.83728-5.81338-.32783-8.24667-.67027-1.39976-1.0937-1.53283-1.28007-3.23167-.22624-2.05689.60733-8.76826.64127-10.21882a20.41449,20.41449,0,0,0-.91706-7.73746s-1.10713-3.32236-2.84086-4.32293l-3.45666-.59519-2.13673-1.97958c-8.60869-5.298-17.83908-1.58115-22.78148.42124-7.12393,2.31088-11.62725,9.28713-8.48256,24.18718.53721,2.54455-1.39377,3.68289-1.26794,5.07076.27579,3.03814.33506,10.33875,3.20491,12.1377a7.8496,7.8496,0,0,0,2.28808.53721q.42261,4.43566.84447,8.87233c.71735,1.966,2.43552,2.18154,2.93506,4.957l-2.19938.53473c-.98868,2.10274-2.79977,6.33151-4.64852,7.60415q-2.323.63372-4.646,1.267c-5.42881,2.22737-11.46025,4.89036-16.9012,7.18315-4.9533,2.09085-10.88314,2.83471-12.67515,8.02763,0,3.527-.3313,11.8572-.24061,16.47673h47.36166l3.47747-23.7481-2.89046-6.10032,6.67247-3.19921,5.62134,3.13379-3.0986,6.28195L447.33073,341h45.28193C492.70459,336.38047,492.37082,328.0503,492.37082,324.52327Z"/><path class="cls-6" d="M976.59354,324.52327c-1.79077-5.19292-7.71937-5.93678-12.67387-8.02763-5.441-2.29279-11.47218-4.95578-16.9-7.18315q-2.323-.6315-4.64729-1.267c-1.84875-1.27264-3.6586-5.50141-4.64728-7.60415q-1.47893-.21038-2.95811-.421c.1524-3.25347,2.16568-3.42891,2.95811-5.914.69707-2.19367.07161-5.043,1.17725-7.0719.76715-1.40843,2.50093-1.41933,3.3672-2.62681a12.09523,12.09523,0,0,0,1.54868-4.35216c.44776-2.45361.83728-5.81338-.32782-8.24667-.67027-1.39976-1.0937-1.53283-1.28008-3.23167-.22623-2.05689.60733-8.76826.64128-10.21882a20.4147,20.4147,0,0,0-.91707-7.73746s-1.10712-3.32236-2.84086-4.32293l-3.45666-.59519-2.13672-1.97958c-8.60869-5.298-17.83908-1.58115-22.78148.42124-7.12394,2.31088-11.62726,9.28713-8.48256,24.18718.5372,2.54455-1.39378,3.68289-1.26794,5.07076.27579,3.03814.33505,10.33875,3.2049,12.1377a7.84966,7.84966,0,0,0,2.28809.53721q.42259,4.43566.84446,8.87233c.71735,1.966,2.43552,2.18154,2.93506,4.957l-2.19937.53473c-.98868,2.10274-2.79977,6.33151-4.64852,7.60415q-2.323.63372-4.646,1.267c-5.42881,2.22737-11.46024,4.89036-16.9012,7.18315-4.9533,2.09085-10.88314,2.83471-12.67515,8.02763,0,3.527-.33129,11.8572-.2406,16.47673h47.36165l3.47748-23.7481-2.89046-6.10032,6.67246-3.19921,5.62134,3.13379-3.0986,6.28195L931.55346,341h45.28192C976.92731,336.38047,976.59354,328.0503,976.59354,324.52327Z"/><path class="cls-6" d="M1096.37082,324.52327c-1.79078-5.19292-7.71938-5.93678-12.67388-8.02763-5.441-2.29279-11.47218-4.95578-16.9-7.18315q-2.323-.6315-4.64728-1.267c-1.84875-1.27264-3.65861-5.50141-4.64728-7.60415q-1.47894-.21038-2.95811-.421c.15239-3.25347,2.16568-3.42891,2.95811-5.914.69707-2.19367.07161-5.043,1.17724-7.0719.76716-1.40843,2.50094-1.41933,3.36721-2.62681a12.09523,12.09523,0,0,0,1.54868-4.35216c.44775-2.45361.83728-5.81338-.32783-8.24667-.67027-1.39976-1.0937-1.53283-1.28007-3.23167-.22624-2.05689.60733-8.76826.64127-10.21882a20.41449,20.41449,0,0,0-.91706-7.73746s-1.10713-3.32236-2.84086-4.32293l-3.45666-.59519-2.13673-1.97958c-8.60869-5.298-17.83908-1.58115-22.78148.42124-7.12393,2.31088-11.62725,9.28713-8.48256,24.18718.53721,2.54455-1.39377,3.68289-1.26794,5.07076.27579,3.03814.33506,10.33875,3.20491,12.1377a7.8496,7.8496,0,0,0,2.28808.53721q.42261,4.43566.84447,8.87233c.71735,1.966,2.43552,2.18154,2.93506,4.957l-2.19938.53473c-.98868,2.10274-2.79977,6.33151-4.64852,7.60415q-2.323.63372-4.646,1.267c-5.42881,2.22737-11.46025,4.89036-16.9012,7.18315-4.9533,2.09085-10.88314,2.83471-12.67515,8.02763,0,3.527-.3313,11.8572-.24061,16.47673h47.36166l3.47747-23.7481-2.89046-6.10032,6.67247-3.19921,5.62134,3.13379-3.0986,6.28195L1051.33073,341h45.28193C1096.70459,336.38047,1096.37082,328.0503,1096.37082,324.52327Z"/><path class="cls-5" d="M1580.59354,324.52327c-1.79077-5.19292-7.71937-5.93678-12.67387-8.02763-5.441-2.29279-11.47218-4.95578-16.9-7.18315q-2.323-.6315-4.64729-1.267c-1.84875-1.27264-3.6586-5.50141-4.64728-7.60415q-1.47892-.21038-2.95811-.421c.1524-3.25347,2.16568-3.42891,2.95811-5.914.69707-2.19367.07161-5.043,1.17725-7.0719.76715-1.40843,2.50093-1.41933,3.3672-2.62681a12.09523,12.09523,0,0,0,1.54868-4.35216c.44776-2.45361.83728-5.81338-.32782-8.24667-.67027-1.39976-1.0937-1.53283-1.28008-3.23167-.22623-2.05689.60733-8.76826.64128-10.21882a20.4147,20.4147,0,0,0-.91707-7.73746s-1.10712-3.32236-2.84086-4.32293l-3.45666-.59519-2.13672-1.97958c-8.60869-5.298-17.83908-1.58115-22.78148.42124-7.12394,2.31088-11.62726,9.28713-8.48256,24.18718.5372,2.54455-1.39378,3.68289-1.26794,5.07076.27579,3.03814.33505,10.33875,3.2049,12.1377a7.84966,7.84966,0,0,0,2.28809.53721q.4226,4.43566.84446,8.87233c.71735,1.966,2.43552,2.18154,2.93506,4.957l-2.19937.53473c-.98868,2.10274-2.79977,6.33151-4.64852,7.60415q-2.323.63372-4.64605,1.267c-5.42881,2.22737-11.46024,4.89036-16.9012,7.18315-4.9533,2.09085-10.88314,2.83471-12.67515,8.02763,0,3.527-.33129,11.8572-.2406,16.47673h47.36165l3.47748-23.7481-2.89046-6.10032,6.67246-3.19921,5.62134,3.13379-3.0986,6.28195L1535.55346,341h45.28192C1580.92731,336.38047,1580.59354,328.0503,1580.59354,324.52327Z"/><path class="cls-5" d="M1700.37082,324.52327c-1.79078-5.19292-7.71938-5.93678-12.67388-8.02763-5.441-2.29279-11.47218-4.95578-16.9-7.18315q-2.323-.6315-4.64728-1.267c-1.84875-1.27264-3.65861-5.50141-4.64728-7.60415q-1.47894-.21038-2.95811-.421c.15239-3.25347,2.16568-3.42891,2.95811-5.914.69707-2.19367.07161-5.043,1.17724-7.0719.76716-1.40843,2.50094-1.41933,3.36721-2.62681a12.09523,12.09523,0,0,0,1.54868-4.35216c.44775-2.45361.83728-5.81338-.32783-8.24667-.67027-1.39976-1.0937-1.53283-1.28007-3.23167-.22624-2.05689.60733-8.76826.64127-10.21882a20.41449,20.41449,0,0,0-.91706-7.73746s-1.10713-3.32236-2.84086-4.32293l-3.45666-.59519-2.13673-1.97958c-8.60869-5.298-17.83908-1.58115-22.78148.42124-7.12393,2.31088-11.62725,9.28713-8.48256,24.18718.53721,2.54455-1.39377,3.68289-1.26794,5.07076.27579,3.03814.33506,10.33875,3.20491,12.1377a7.8496,7.8496,0,0,0,2.28808.53721q.42261,4.43566.84447,8.87233c.71735,1.966,2.43552,2.18154,2.93506,4.957l-2.19938.53473c-.98868,2.10274-2.79977,6.33151-4.64852,7.60415q-2.323.63372-4.646,1.267c-5.42881,2.22737-11.46025,4.89036-16.9012,7.18315-4.9533,2.09085-10.88314,2.83471-12.67515,8.02763,0,3.527-.3313,11.8572-.24061,16.47673h47.36166l3.47747-23.7481-2.89046-6.10032,6.67247-3.19921,5.62134,3.13379-3.0986,6.28195L1655.33073,341h45.28193C1700.70459,336.38047,1700.37082,328.0503,1700.37082,324.52327Z"/><path class="cls-5" d="M372.59354,802.52327c-1.79077-5.19292-7.71937-5.93678-12.67387-8.02763-5.441-2.29279-11.47218-4.95578-16.9-7.18315q-2.323-.6315-4.64729-1.267c-1.84875-1.27264-3.6586-5.50141-4.64728-7.60415q-1.47893-.21037-2.95811-.421c.1524-3.25347,2.16568-3.42891,2.95811-5.914.69707-2.19367.07161-5.043,1.17725-7.0719.76715-1.40843,2.50093-1.41933,3.3672-2.62681a12.09523,12.09523,0,0,0,1.54868-4.35216c.44776-2.45361.83728-5.81338-.32782-8.24667-.67027-1.39976-1.0937-1.53283-1.28008-3.23167-.22623-2.05689.60733-8.76826.64128-10.21882a20.4147,20.4147,0,0,0-.91707-7.73746s-1.10712-3.32236-2.84086-4.32293l-3.45666-.59519-2.13672-1.97958c-8.60869-5.298-17.83908-1.58115-22.78148.42124-7.12394,2.31088-11.62726,9.28713-8.48256,24.18718.5372,2.54455-1.39378,3.68289-1.26794,5.07076.27579,3.03814.335,10.33875,3.2049,12.1377a7.84966,7.84966,0,0,0,2.28809.53721q.4226,4.43566.84446,8.87233c.71735,1.966,2.43552,2.18154,2.93506,4.957l-2.19937.53473c-.98868,2.10274-2.79977,6.33151-4.64852,7.60415q-2.323.63372-4.64605,1.267c-5.42881,2.22737-11.46024,4.89036-16.9012,7.18315-4.9533,2.09085-10.88314,2.83471-12.67515,8.02763,0,3.527-.33129,11.8572-.2406,16.47673h47.36165l3.47748-23.7481-2.89046-6.10032,6.67246-3.19921,5.62134,3.13379-3.0986,6.282L327.55346,819h45.28192C372.92731,814.38047,372.59354,806.0503,372.59354,802.52327Z"/><path class="cls-5" d="M492.37082,802.52327c-1.79078-5.19292-7.71938-5.93678-12.67388-8.02763-5.441-2.29279-11.47218-4.95578-16.9-7.18315q-2.323-.6315-4.64728-1.267c-1.84875-1.27264-3.65861-5.50141-4.64728-7.60415q-1.47894-.21037-2.95811-.421c.15239-3.25347,2.16568-3.42891,2.95811-5.914.69707-2.19367.07161-5.043,1.17724-7.0719.76716-1.40843,2.50094-1.41933,3.36721-2.62681a12.09523,12.09523,0,0,0,1.54868-4.35216c.44775-2.45361.83728-5.81338-.32783-8.24667-.67027-1.39976-1.0937-1.53283-1.28007-3.23167-.22624-2.05689.60733-8.76826.64127-10.21882a20.41449,20.41449,0,0,0-.91706-7.73746s-1.10713-3.32236-2.84086-4.32293l-3.45666-.59519-2.13673-1.97958c-8.60869-5.298-17.83908-1.58115-22.78148.42124-7.12393,2.31088-11.62725,9.28713-8.48256,24.18718.53721,2.54455-1.39377,3.68289-1.26794,5.07076.27579,3.03814.33506,10.33875,3.20491,12.1377a7.8496,7.8496,0,0,0,2.28808.53721q.42261,4.43566.84447,8.87233c.71735,1.966,2.43552,2.18154,2.93506,4.957l-2.19938.53473c-.98868,2.10274-2.79977,6.33151-4.64852,7.60415q-2.323.63372-4.646,1.267c-5.42881,2.22737-11.46025,4.89036-16.9012,7.18315-4.9533,2.09085-10.88314,2.83471-12.67515,8.02763,0,3.527-.3313,11.8572-.24061,16.47673h47.36166l3.47747-23.7481-2.89046-6.10032,6.67247-3.19921,5.62134,3.13379-3.0986,6.282L447.33073,819h45.28193C492.70459,814.38047,492.37082,806.0503,492.37082,802.52327Z"/><path class="cls-6" d="M976.59354,802.52327c-1.79077-5.19292-7.71937-5.93678-12.67387-8.02763-5.441-2.29279-11.47218-4.95578-16.9-7.18315q-2.323-.6315-4.64729-1.267c-1.84875-1.27264-3.6586-5.50141-4.64728-7.60415q-1.47893-.21037-2.95811-.421c.1524-3.25347,2.16568-3.42891,2.95811-5.914.69707-2.19367.07161-5.043,1.17725-7.0719.76715-1.40843,2.50093-1.41933,3.3672-2.62681a12.09523,12.09523,0,0,0,1.54868-4.35216c.44776-2.45361.83728-5.81338-.32782-8.24667-.67027-1.39976-1.0937-1.53283-1.28008-3.23167-.22623-2.05689.60733-8.76826.64128-10.21882a20.4147,20.4147,0,0,0-.91707-7.73746s-1.10712-3.32236-2.84086-4.32293l-3.45666-.59519-2.13672-1.97958c-8.60869-5.298-17.83908-1.58115-22.78148.42124-7.12394,2.31088-11.62726,9.28713-8.48256,24.18718.5372,2.54455-1.39378,3.68289-1.26794,5.07076.27579,3.03814.33505,10.33875,3.2049,12.1377a7.84966,7.84966,0,0,0,2.28809.53721q.42259,4.43566.84446,8.87233c.71735,1.966,2.43552,2.18154,2.93506,4.957l-2.19937.53473c-.98868,2.10274-2.79977,6.33151-4.64852,7.60415q-2.323.63372-4.646,1.267c-5.42881,2.22737-11.46024,4.89036-16.9012,7.18315-4.9533,2.09085-10.88314,2.83471-12.67515,8.02763,0,3.527-.33129,11.8572-.2406,16.47673h47.36165l3.47748-23.7481-2.89046-6.10032,6.67246-3.19921,5.62134,3.13379-3.0986,6.282L931.55346,819h45.28192C976.92731,814.38047,976.59354,806.0503,976.59354,802.52327Z"/><path class="cls-5" d="M1096.37082,802.52327c-1.79078-5.19292-7.71938-5.93678-12.67388-8.02763-5.441-2.29279-11.47218-4.95578-16.9-7.18315q-2.323-.6315-4.64728-1.267c-1.84875-1.27264-3.65861-5.50141-4.64728-7.60415q-1.47894-.21037-2.95811-.421c.15239-3.25347,2.16568-3.42891,2.95811-5.914.69707-2.19367.07161-5.043,1.17724-7.0719.76716-1.40843,2.50094-1.41933,3.36721-2.62681a12.09523,12.09523,0,0,0,1.54868-4.35216c.44775-2.45361.83728-5.81338-.32783-8.24667-.67027-1.39976-1.0937-1.53283-1.28007-3.23167-.22624-2.05689.60733-8.76826.64127-10.21882a20.41449,20.41449,0,0,0-.91706-7.73746s-1.10713-3.32236-2.84086-4.32293l-3.45666-.59519-2.13673-1.97958c-8.60869-5.298-17.83908-1.58115-22.78148.42124-7.12393,2.31088-11.62725,9.28713-8.48256,24.18718.53721,2.54455-1.39377,3.68289-1.26794,5.07076.27579,3.03814.33506,10.33875,3.20491,12.1377a7.8496,7.8496,0,0,0,2.28808.53721q.42261,4.43566.84447,8.87233c.71735,1.966,2.43552,2.18154,2.93506,4.957l-2.19938.53473c-.98868,2.10274-2.79977,6.33151-4.64852,7.60415q-2.323.63372-4.646,1.267c-5.42881,2.22737-11.46025,4.89036-16.9012,7.18315-4.9533,2.09085-10.88314,2.83471-12.67515,8.02763,0,3.527-.3313,11.8572-.24061,16.47673h47.36166l3.47747-23.7481-2.89046-6.10032,6.67247-3.19921,5.62134,3.13379-3.0986,6.282L1051.33073,819h45.28193C1096.70459,814.38047,1096.37082,806.0503,1096.37082,802.52327Z"/><path class="cls-3" d="M1580.59354,802.45412c-1.79077-5.19292-7.71937-5.93678-12.67387-8.02763-5.441-2.29279-11.47218-4.95578-16.9-7.18315q-2.323-.6315-4.64729-1.26695c-1.84875-1.27264-3.6586-5.50141-4.64728-7.60415q-1.47892-.21037-2.95811-.421c.1524-3.25347,2.16568-3.42891,2.95811-5.914.69707-2.19368.07161-5.043,1.17725-7.0719.76715-1.40844,2.50093-1.41934,3.3672-2.62682a12.09523,12.09523,0,0,0,1.54868-4.35216c.44776-2.45361.83728-5.81338-.32782-8.24667-.67027-1.39976-1.0937-1.53282-1.28008-3.23167-.22623-2.05689.60733-8.76826.64128-10.21882a20.4147,20.4147,0,0,0-.91707-7.73746s-1.10712-3.32235-2.84086-4.32293l-3.45666-.59519-2.13672-1.97958c-8.60869-5.298-17.83908-1.58114-22.78148.42124-7.12394,2.31088-11.62726,9.28713-8.48256,24.18719.5372,2.54454-1.39378,3.68288-1.26794,5.07075.27579,3.03814.33505,10.33875,3.2049,12.1377a7.84966,7.84966,0,0,0,2.28809.53721q.4226,4.43567.84446,8.87233c.71735,1.966,2.43552,2.18154,2.93506,4.957l-2.19937.53473c-.98868,2.10274-2.79977,6.33151-4.64852,7.60415q-2.323.63372-4.64605,1.26695c-5.42881,2.22737-11.46024,4.89036-16.9012,7.18315-4.9533,2.09085-10.88314,2.83471-12.67515,8.02763,0,3.527-.33129,11.8572-.2406,16.47673h47.36165l3.47748-23.7481-2.89046-6.10032,6.67246-3.19921,5.62134,3.13379-3.0986,6.28195,5.47965,23.63189h45.28192C1580.92731,814.31132,1580.59354,805.98115,1580.59354,802.45412Z"/><path class="cls-3" d="M1700.37082,802.45412c-1.79078-5.19292-7.71938-5.93678-12.67388-8.02763-5.441-2.29279-11.47218-4.95578-16.9-7.18315q-2.323-.6315-4.64728-1.26695c-1.84875-1.27264-3.65861-5.50141-4.64728-7.60415q-1.47894-.21037-2.95811-.421c.15239-3.25347,2.16568-3.42891,2.95811-5.914.69707-2.19368.07161-5.043,1.17724-7.0719.76716-1.40844,2.50094-1.41934,3.36721-2.62682a12.09523,12.09523,0,0,0,1.54868-4.35216c.44775-2.45361.83728-5.81338-.32783-8.24667-.67027-1.39976-1.0937-1.53282-1.28007-3.23167-.22624-2.05689.60733-8.76826.64127-10.21882a20.41449,20.41449,0,0,0-.91706-7.73746s-1.10713-3.32235-2.84086-4.32293l-3.45666-.59519-2.13673-1.97958c-8.60869-5.298-17.83908-1.58114-22.78148.42124-7.12393,2.31088-11.62725,9.28713-8.48256,24.18719.53721,2.54454-1.39377,3.68288-1.26794,5.07075.27579,3.03814.33506,10.33875,3.20491,12.1377a7.8496,7.8496,0,0,0,2.28808.53721q.42261,4.43567.84447,8.87233c.71735,1.966,2.43552,2.18154,2.93506,4.957l-2.19938.53473c-.98868,2.10274-2.79977,6.33151-4.64852,7.60415q-2.323.63372-4.646,1.26695c-5.42881,2.22737-11.46025,4.89036-16.9012,7.18315-4.9533,2.09085-10.88314,2.83471-12.67515,8.02763,0,3.527-.3313,11.8572-.24061,16.47673h47.36166l3.47747-23.7481-2.89046-6.10032,6.67247-3.19921,5.62134,3.13379-3.0986,6.28195,5.47964,23.63189h45.28193C1700.70459,814.31132,1700.37082,805.98115,1700.37082,802.45412Z"/></g></svg>